<svg xmlns="http://www.w3.org/2000/svg" xmlns:xlink="http://www.w3.org/1999/xlink" version="1.1" x="0px" y="0px" viewBox="0 0 100 125" width="25px" height="25px" style="enable-background:new 0 0 100 100;" xml:space="preserve"><style type="text/css">
	.st0{fill:none;stroke:#000000;stroke-width:2;stroke-linecap:round;stroke-linejoin:round;stroke-miterlimit:10;}
	.st1{fill:none;stroke:#000000;stroke-width:2;stroke-linejoin:round;stroke-miterlimit:10;}
</style><path style="fill:#FFE600;" d="M85.7,42L50.2,19.1c-0.3-0.2-0.8-0.2-1.1,0L13.6,42c-0.3,0.2-0.5,0.5-0.5,0.8s0.2,0.7,0.5,0.8l8.1,5.2v13.5  c0,0.3,0.2,0.7,0.5,0.8l26.9,17.3c0.2,0.1,0.4,0.2,0.5,0.2s0.4-0.1,0.5-0.2l17.1-11v3.4c-2,0.5-3.4,2.2-3.4,4.3v6.1c0,0.6,0.4,1,1,1  h6.9c0.6,0,1-0.4,1-1v-6.1c0-2.1-1.5-3.9-3.4-4.3v-4.6l7.8-5c0.3-0.2,0.5-0.5,0.5-0.8V48.9l8.1-5.2c0.3-0.2,0.5-0.5,0.5-0.8  S85.9,42.2,85.7,42z M70.7,77.2v5.1h-4.9v-5.1c0-1.3,1.1-2.4,2.4-2.4S70.7,75.9,70.7,77.2z M49.6,78.6L23.7,61.9V50.2l25.4,16.4  c0.2,0.1,0.4,0.2,0.5,0.2s0.4-0.1,0.5-0.2l17.1-11v11.6L49.6,78.6z M75.5,61.9l-6.3,4V54.2l6.3-4V61.9z M68.3,52.5L50.2,40.7  c-0.5-0.3-1.1-0.2-1.4,0.3c-0.3,0.5-0.2,1.1,0.3,1.4l17.4,11.4L49.6,64.5L16,42.8l33.6-21.7l33.6,21.7L68.3,52.5z"/></svg>